<svg width="77" height="72" viewBox="0 0 77 72" fill="none" xmlns="http://www.w3.org/2000/svg">
<path id="add_reaction" d="M34.8636 72C30.11 72 25.6427 71.1 21.4618 69.3C17.2809 67.5 13.6441 65.0571 10.5514 61.9714C7.45864 58.8857 5.01023 55.2571 3.20614 51.0857C1.40205 46.9143 0.5 42.4571 0.5 37.7143C0.5 32.9714 1.40205 28.5143 3.20614 24.3429C5.01023 20.1714 7.45864 16.5429 10.5514 13.4571C13.6441 10.3714 17.2809 7.92857 21.4618 6.12857C25.6427 4.32857 30.11 3.42857 34.8636 3.42857C37.3264 3.42857 39.7032 3.67143 41.9941 4.15714C44.285 4.64286 46.49 5.34286 48.6091 6.25714V13.9714C46.6045 12.8286 44.4425 11.9286 42.123 11.2714C39.8034 10.6143 37.3836 10.2857 34.8636 10.2857C27.2464 10.2857 20.7602 12.9571 15.4052 18.3C10.0502 23.6429 7.37273 30.1143 7.37273 37.7143C7.37273 45.3143 10.0502 51.7857 15.4052 57.1286C20.7602 62.4714 27.2464 65.1429 34.8636 65.1429C42.4809 65.1429 48.9671 62.4714 54.3221 57.1286C59.6771 51.7857 62.3545 45.3143 62.3545 37.7143C62.3545 35.8857 62.1684 34.1143 61.7961 32.4C61.4239 30.6857 60.9227 29.0286 60.2927 27.4286H67.6809C68.1964 29.0857 68.583 30.7571 68.8407 32.4429C69.0984 34.1286 69.2273 35.8857 69.2273 37.7143C69.2273 42.4571 68.3252 46.9143 66.5211 51.0857C64.717 55.2571 62.2686 58.8857 59.1759 61.9714C56.0832 65.0571 52.4464 67.5 48.2655 69.3C44.0846 71.1 39.6173 72 34.8636 72ZM62.3545 20.5714V13.7143H55.4818V6.85714H62.3545V0H69.2273V6.85714H76.1V13.7143H69.2273V20.5714H62.3545ZM46.8909 34.2857C48.3227 34.2857 49.5398 33.7857 50.542 32.7857C51.5443 31.7857 52.0455 30.5714 52.0455 29.1429C52.0455 27.7143 51.5443 26.5 50.542 25.5C49.5398 24.5 48.3227 24 46.8909 24C45.4591 24 44.2421 24.5 43.2398 25.5C42.2375 26.5 41.7364 27.7143 41.7364 29.1429C41.7364 30.5714 42.2375 31.7857 43.2398 32.7857C44.2421 33.7857 45.4591 34.2857 46.8909 34.2857ZM22.8364 34.2857C24.2682 34.2857 25.4852 33.7857 26.4875 32.7857C27.4898 31.7857 27.9909 30.5714 27.9909 29.1429C27.9909 27.7143 27.4898 26.5 26.4875 25.5C25.4852 24.5 24.2682 24 22.8364 24C21.4045 24 20.1875 24.5 19.1852 25.5C18.183 26.5 17.6818 27.7143 17.6818 29.1429C17.6818 30.5714 18.183 31.7857 19.1852 32.7857C20.1875 33.7857 21.4045 34.2857 22.8364 34.2857ZM34.8636 56.5714C38.7582 56.5714 42.2948 55.4714 45.4734 53.2714C48.6521 51.0714 50.9573 48.1714 52.3891 44.5714H17.3382C18.77 48.1714 21.0752 51.0714 24.2539 53.2714C27.4325 55.4714 30.9691 56.5714 34.8636 56.5714Z" fill="#02BECC"/>
</svg>
