<svg xmlns="http://www.w3.org/2000/svg" width="89.129" height="90" viewBox="0 0 89.129 90">
    <defs>
        <style>
            .prefix__cls-1{fill:#ebeef2}.prefix__cls-2{fill:#c9cdd3}.prefix__cls-4{fill:#52668d}
        </style>
    </defs>
    <g id="prefix__privacy-policy" transform="translate(-2.479)">
        <path id="prefix__Path_40075" d="M67.349 4.275v81.45A4.275 4.275 0 0 1 63.074 90H6.755a4.275 4.275 0 0 1-4.275-4.275v-64.93L23.275 0h39.8a4.276 4.276 0 0 1 4.274 4.275z" class="prefix__cls-1" data-name="Path 40075" transform="translate(-.001)"/>
        <path id="prefix__Path_40076" d="M325.784 0h-4.565a4.276 4.276 0 0 1 4.276 4.275v81.45A4.275 4.275 0 0 1 321.219 90h4.565a4.275 4.275 0 0 0 4.275-4.275V4.275A4.275 4.275 0 0 0 325.784 0z" class="prefix__cls-2" data-name="Path 40076" transform="translate(-262.711)"/>
        <path id="prefix__Path_40077" d="M23.274 0L2.479 20.795h17.046a3.749 3.749 0 0 0 3.749-3.749V0z" class="prefix__cls-2" data-name="Path 40077"/>
        <path id="prefix__Path_40078" fill="#3872b7" d="M146.069 134.891H127.23a1.318 1.318 0 1 1 0-2.637h18.838a1.318 1.318 0 0 1 0 2.637z" data-name="Path 40078" transform="translate(-101.736 -109.006)"/>
        <g id="prefix__Group_13062" data-name="Group 13062" transform="translate(10.713 37.611)">
            <path id="prefix__Path_40079" d="M96.406 216.6H50.642a1.318 1.318 0 0 1 0-2.637h45.764a1.318 1.318 0 1 1 0 2.637z" class="prefix__cls-4" data-name="Path 40079" transform="translate(-49.324 -213.967)"/>
            <path id="prefix__Path_40080" d="M96.406 279.851H50.642a1.318 1.318 0 0 1 0-2.637h45.764a1.318 1.318 0 1 1 0 2.637z" class="prefix__cls-4" data-name="Path 40080" transform="translate(-49.324 -266.096)"/>
            <path id="prefix__Path_40081" d="M96.406 343.1H50.642a1.318 1.318 0 0 1 0-2.637h45.764a1.318 1.318 0 1 1 0 2.637z" class="prefix__cls-4" data-name="Path 40081" transform="translate(-49.324 -318.226)"/>
            <path id="prefix__Path_40082" d="M96.406 406.346H50.642a1.318 1.318 0 0 1 0-2.637h45.764a1.318 1.318 0 1 1 0 2.637z" class="prefix__cls-4" data-name="Path 40082" transform="translate(-49.324 -370.356)"/>
        </g>
        <path id="prefix__Path_40083" fill="#6fbc89" d="M269.668 172.844a2.8 2.8 0 0 0-2.2-1.911 62.648 62.648 0 0 0-19.416 0 2.8 2.8 0 0 0-2.2 1.911 19.155 19.155 0 0 1-10.653 11.594 2.776 2.776 0 0 0-1.679 2.839c1.484 14.077 10.656 26.94 23.2 32.059a2.766 2.766 0 0 0 2.087 0c12.546-5.118 21.717-17.981 23.2-32.059a2.776 2.776 0 0 0-1.679-2.839 19.156 19.156 0 0 1-10.66-11.594z" data-name="Path 40083" transform="translate(-190.407 -140.262)"/>
        <path id="prefix__Path_40084" fill="#40904b" d="M381.587 184.438a19.155 19.155 0 0 1-10.653-11.594 2.8 2.8 0 0 0-2.2-1.911 62.6 62.6 0 0 0-9.708-.757q-1.339 0-2.663.058a62.627 62.627 0 0 1 7.045.7 2.8 2.8 0 0 1 2.2 1.911 19.155 19.155 0 0 0 10.653 11.594 2.776 2.776 0 0 1 1.679 2.839c-1.42 13.464-9.872 25.817-21.582 31.345q.8.378 1.62.713a2.764 2.764 0 0 0 2.087 0c12.546-5.118 21.717-17.981 23.2-32.059a2.776 2.776 0 0 0-1.678-2.839z" data-name="Path 40084" transform="translate(-291.674 -140.262)"/>
        <path id="prefix__Path_40085" fill="#f6bb93" d="M341.209 222.219v1.936a5.326 5.326 0 0 0 5.326 5.326 5.326 5.326 0 0 0 5.326-5.326v-1.936a5.326 5.326 0 0 0-5.326-5.326 5.326 5.326 0 0 0-5.326 5.326z" data-name="Path 40085" transform="translate(-279.188 -178.767)"/>
        <path id="prefix__Path_40086" d="M334.792 303.112a2.127 2.127 0 0 0-2.937-.664 9.521 9.521 0 0 1-10.267 0 2.127 2.127 0 0 0-2.937.664 9.5 9.5 0 0 0-1.481 5.108v4.126a2.247 2.247 0 0 0 2.247 2.247h14.61a2.247 2.247 0 0 0 2.247-2.247v-4.126a9.5 9.5 0 0 0-1.482-5.108z" class="prefix__cls-4" data-name="Path 40086" transform="translate(-259.374 -249.01)"/>
        <path id="prefix__Path_40087" d="M350.2 307.133a9.479 9.479 0 0 1-4.544-1.155l3.629 5.978a1.07 1.07 0 0 0 1.829 0l3.629-5.978a9.479 9.479 0 0 1-4.543 1.155z" class="prefix__cls-1" data-name="Path 40087" transform="translate(-282.855 -252.193)"/>
    </g>
</svg>
