<svg width="73" height="72" viewBox="0 0 73 72" fill="none" xmlns="http://www.w3.org/2000/svg">
<path id="search_insights" d="M29.3 50.4C35.3 50.4 40.4 48.3 44.6 44.1C48.8 39.9 50.9 34.8 50.9 28.8C50.9 22.8 48.8 17.7 44.6 13.5C40.4 9.3 35.3 7.2 29.3 7.2C23.3 7.2 18.2 9.3 14 13.5C9.8 17.7 7.7 22.8 7.7 28.8C7.7 34.8 9.8 39.9 14 44.1C18.2 48.3 23.3 50.4 29.3 50.4ZM25.7 39.6V14.4H32.9V39.6H25.7ZM13.1 39.6V21.6H20.3V39.6H13.1ZM38.3 39.6V25.2H45.5V39.6H38.3ZM67.46 72L47.03 51.57C44.57 53.49 41.84 54.975 38.84 56.025C35.84 57.075 32.66 57.6 29.3 57.6C21.26 57.6 14.45 54.81 8.87 49.23C3.29 43.65 0.5 36.84 0.5 28.8C0.5 20.76 3.29 13.95 8.87 8.37C14.45 2.79 21.26 0 29.3 0C37.34 0 44.15 2.79 49.73 8.37C55.31 13.95 58.1 20.76 58.1 28.8C58.1 32.16 57.575 35.34 56.525 38.34C55.475 41.34 53.99 44.07 52.07 46.53L72.5 66.96L67.46 72Z" fill="#02BECC"/>
</svg>
