<svg width="71" height="72" viewBox="0 0 71 72" fill="none" xmlns="http://www.w3.org/2000/svg">
<rect width="71" height="72" fill="#474747"/>
<g id="V3 Online Survey Maker" clip-path="url(#clip0_281_1069)">
<g id="second fold">
<rect width="1920" height="1289" transform="translate(-166 -288)" fill="white"/>
<g id="first section">
<g id="Cards">
<g id="Frame 25292">
<path id="Vector" d="M31.1359 13.5003L33.3242 9.00018L37.7008 6.75013L33.3242 4.50009L31.1359 0L28.9477 4.50009L24.5711 6.75013L28.9477 9.00018L31.1359 13.5003ZM11.4414 22.5004L15.0876 15.0008L22.3828 11.2502L15.0876 7.49968L11.4414 0L7.79518 7.49968L0.5 11.2502L7.79518 15.0008L11.4414 22.5004ZM59.5836 40.5008L55.9374 48.0005L48.6422 51.751L55.9374 55.5016L59.5836 63.0012L63.2298 55.5016L70.525 51.751L63.2298 48.0005L59.5836 40.5008ZM69.2421 13.2514L57.6374 1.31909C56.784 0.438759 55.6638 0 54.5437 0C53.4236 0 52.3034 0.438759 51.4486 1.31909L1.78288 52.3867C0.0732853 54.1445 0.0732853 56.9936 1.78288 58.7501L13.3876 70.6823C14.2424 71.5612 15.3625 72 16.4813 72C17.6014 72 18.7215 71.5612 19.5763 70.6823L69.2421 19.6134C70.9517 17.8583 70.9517 15.0078 69.2421 13.2514ZM49.6611 28.6121L42.6983 21.4528L54.5423 9.2744L61.5052 16.4338L49.6611 28.6121Z" fill="#02BECC"/>
</g>
</g>
</g>
</g>
</g>
<defs>
<clipPath id="clip0_281_1069">
<rect width="1920" height="8654.85" fill="white" transform="translate(-166 -1226)"/>
</clipPath>
</defs>
</svg>
